<svg xmlns="http://www.w3.org/2000/svg" width="1440" height="900" viewBox="0 0 1440 900" fill="none">
  <rect width="1440" height="900" fill="#F3EEE5"/>
  <rect x="60" y="60" width="1320" height="780" rx="44" fill="#FBF7F0" stroke="#DDD4C6"/>
  <rect x="92" y="92" width="790" height="248" rx="34" fill="url(#hero)"/>
  <rect x="912" y="92" width="436" height="248" rx="30" fill="#FFFDF8" stroke="#E5DCCF"/>
  <rect x="92" y="372" width="300" height="164" rx="28" fill="#FFFDF8" stroke="#E5DCCF"/>
  <rect x="412" y="372" width="300" height="164" rx="28" fill="#FFFDF8" stroke="#E5DCCF"/>
  <rect x="732" y="372" width="300" height="164" rx="28" fill="#FFFDF8" stroke="#E5DCCF"/>
  <rect x="1048" y="372" width="300" height="164" rx="28" fill="#FFFDF8" stroke="#E5DCCF"/>
  <rect x="92" y="566" width="620" height="236" rx="28" fill="#FFFDF8" stroke="#E5DCCF"/>
  <rect x="732" y="566" width="616" height="236" rx="28" fill="#FFFDF8" stroke="#E5DCCF"/>
  <circle cx="160" cy="160" r="36" fill="#F7F2EA" fill-opacity="0.12"/>
  <circle cx="160" cy="160" r="22" stroke="#F7F2EA" stroke-width="4"/>
  <circle cx="160" cy="160" r="8" fill="#D6B770"/>
  <path d="M148 176L175 149" stroke="#F7F2EA" stroke-width="4" stroke-linecap="round"/>
  <text x="214" y="156" fill="#F8F2E7" font-family="Georgia, serif" font-size="28">On-chain self-experiment studio</text>
  <text x="214" y="226" fill="#F8F2E7" font-family="Georgia, serif" font-size="74" font-weight="700">ExperimentX</text>
  <text x="214" y="276" fill="#E6DED0" font-family="Arial, sans-serif" font-size="26">Launch personal experiments, log daily compliance, and share public outcomes on Stellar.</text>
  <text x="950" y="148" fill="#53645A" font-family="Arial, sans-serif" font-size="18" letter-spacing="4">RESULT RATE</text>
  <text x="950" y="214" fill="#1B231D" font-family="Georgia, serif" font-size="56" font-weight="700">78%</text>
  <rect x="950" y="252" width="250" height="12" rx="6" fill="#E6DED1"/>
  <rect x="950" y="252" width="194" height="12" rx="6" fill="#7B947E"/>
  <text x="1262" y="148" fill="#53645A" font-family="Arial, sans-serif" font-size="18" letter-spacing="4">NETWORK</text>
  <text x="1262" y="214" fill="#1B231D" font-family="Georgia, serif" font-size="42" font-weight="700">Testnet</text>
  <text x="118" y="420" fill="#53645A" font-family="Arial, sans-serif" font-size="16" letter-spacing="4">ACTIVE EXPERIMENTS</text>
  <text x="118" y="492" fill="#1B231D" font-family="Georgia, serif" font-size="56" font-weight="700">4</text>
  <text x="438" y="420" fill="#53645A" font-family="Arial, sans-serif" font-size="16" letter-spacing="4">COMPLETED RESULTS</text>
  <text x="438" y="492" fill="#1B231D" font-family="Georgia, serif" font-size="56" font-weight="700">9</text>
  <text x="758" y="420" fill="#53645A" font-family="Arial, sans-serif" font-size="16" letter-spacing="4">COMPLIANCE STREAK</text>
  <text x="758" y="492" fill="#1B231D" font-family="Georgia, serif" font-size="56" font-weight="700">12d</text>
  <text x="1074" y="420" fill="#53645A" font-family="Arial, sans-serif" font-size="16" letter-spacing="4">PUBLIC CHECK-INS</text>
  <text x="1074" y="492" fill="#1B231D" font-family="Georgia, serif" font-size="56" font-weight="700">148</text>
  <text x="120" y="616" fill="#53645A" font-family="Arial, sans-serif" font-size="16" letter-spacing="4">ACTIVE RUNS</text>
  <text x="120" y="668" fill="#1B231D" font-family="Georgia, serif" font-size="38" font-weight="700">No Social Media</text>
  <text x="120" y="706" fill="#5E6C63" font-family="Arial, sans-serif" font-size="24">9 compliant days, 1 miss, 14 day run</text>
  <rect x="120" y="736" width="220" height="10" rx="5" fill="#E6DED1"/>
  <rect x="120" y="736" width="144" height="10" rx="5" fill="#7B947E"/>
  <text x="760" y="616" fill="#53645A" font-family="Arial, sans-serif" font-size="16" letter-spacing="4">PUBLIC EVENT PULSE</text>
  <text x="760" y="668" fill="#1B231D" font-family="Georgia, serif" font-size="34" font-weight="700">Experiment succeeded: 5AM Wake-Up</text>
  <text x="760" y="710" fill="#5E6C63" font-family="Arial, sans-serif" font-size="24">Ledger 642998 • Published on Stellar with a visible result record</text>
  <defs>
    <linearGradient id="hero" x1="92" y1="92" x2="882" y2="340" gradientUnits="userSpaceOnUse">
      <stop stop-color="#1B231D"/>
      <stop offset="0.55" stop-color="#2D3B31"/>
      <stop offset="1" stop-color="#4C6152"/>
    </linearGradient>
  </defs>
</svg>
